<svg id="Capa_1" data-name="Capa 1" xmlns="http://www.w3.org/2000/svg" viewBox="0 0 225.11 249.94"><defs><style>.cls-1{fill:#efefef;}.cls-2{fill:#54b99d;}.cls-3{fill:#ff3a00;}</style></defs><title>LogoComplet</title><ellipse class="cls-1" cx="112.16" cy="175.45" rx="49.83" ry="3.75"/><path class="cls-2" d="M142.08,83.57h18.28a3.88,3.88,0,0,1,3.46,5.86l-27.36,46.22a4.06,4.06,0,0,1-3.68,2.07,3.89,3.89,0,0,1-3.64-3.88V104.29H110.85a3.94,3.94,0,0,1-2.35-.7,3.89,3.89,0,0,1-1.1-5.16l25.16-42.51a1.61,1.61,0,0,0-1.51-2.43,49.79,49.79,0,0,0-38.47,74.73h0l39.3,68.06a4.32,4.32,0,0,0,7.48,0l39.3-68.06h0A49.83,49.83,0,0,0,144,54a1.66,1.66,0,0,0-2,1.63" transform="translate(-23.45 -23)"/><path class="cls-3" d="M67.88,98.69H48.33a5.43,5.43,0,0,0,0,10.86H67.88a5.43,5.43,0,0,0,0-10.86Z" transform="translate(-23.45 -23)"/><path class="cls-3" d="M222.89,98.69H203.34a5.43,5.43,0,1,0,0,10.86h19.55a5.43,5.43,0,1,0,0-10.86Z" transform="translate(-23.45 -23)"/><path class="cls-3" d="M182,23.72a5.43,5.43,0,0,0-7.42,2l-9.77,17a5.43,5.43,0,0,0,9.41,5.43l9.77-17A5.43,5.43,0,0,0,182,23.72Z" transform="translate(-23.45 -23)"/><path class="cls-3" d="M106.45,42.67l-9.77-17a5.43,5.43,0,0,0-9.41,5.43l9.77,17a5.43,5.43,0,0,0,9.41-5.43Z" transform="translate(-23.45 -23)"/><path class="cls-2" d="M42.46,226.46c11.28,0,19,7.49,19,18.34s-7.73,18.29-19,18.29-19-7.44-19-18.29S31.18,226.46,42.46,226.46Zm0,29.28c6.14,0,10.42-4.51,10.42-10.95s-4.27-11-10.42-11S32,238.32,32,244.8,36.31,255.75,42.46,255.75Z" transform="translate(-23.45 -23)"/><path class="cls-2" d="M73.75,272.93a7.63,7.63,0,0,1-7.63-7.63V248.64c0-7.15,5.57-12.34,13.3-12.34,8,0,13.83,5.62,13.83,13.3S88,262.85,80.76,262.85a10.08,10.08,0,0,1-7-2.69v12.77ZM79.52,243c-3.5,0-6,2.74-6,6.58s2.54,6.53,6,6.53,6.1-2.74,6.1-6.53S83.07,243,79.52,243Z" transform="translate(-23.45 -23)"/><path class="cls-2" d="M95,237.26h3.41a5.28,5.28,0,0,1,5.28-5.28h2.35v5.28h5.47V243h-5.47v9.74a3,3,0,0,0,3.07,3.36,9.86,9.86,0,0,0,2.59-.34v6.29a18.32,18.32,0,0,1-5.18.77c-4.85,0-8.11-3.65-8.11-9.17V243H95Z" transform="translate(-23.45 -23)"/><path class="cls-2" d="M120,225.65a4.25,4.25,0,1,1-4.37,4.27A4.17,4.17,0,0,1,120,225.65Zm3.84,11.62h0v24.63h-7.63v-17A7.63,7.63,0,0,1,123.87,237.26Z" transform="translate(-23.45 -23)"/><path class="cls-2" d="M137.74,240.24a8.27,8.27,0,0,1,7.2-3.94,8.62,8.62,0,0,1,7.87,4.37,9.48,9.48,0,0,1,8.21-4.32c5.57,0,9.41,4.08,9.41,9.94v15.6H162.8v-14c0-2.74-1.73-4.8-4.32-4.9s-4.42,2-4.42,4.9v14h-7.63v-14c0-2.93-1.63-4.9-4.13-4.9s-4.27,2-4.27,4.9v14h-7.63V244.61a7.34,7.34,0,0,1,7.34-7.34h0Z" transform="translate(-23.45 -23)"/><path class="cls-3" d="M187.17,262.85c-8.16,0-13.73-5.42-13.73-13.25s5.57-13.3,13.73-13.3,13.73,5.42,13.73,13.3S195.28,262.85,187.17,262.85Zm0-19.83c-3.6,0-6.1,2.69-6.1,6.58s2.5,6.53,6.1,6.53,6.1-2.69,6.1-6.53S190.72,243,187.17,243Z" transform="translate(-23.45 -23)"/><path class="cls-3" d="M207.78,262.85c-8.16,0-13.73-5.42-13.73-13.25s5.57-13.3,13.73-13.3,13.73,5.42,13.73,13.3S215.89,262.85,207.78,262.85Zm0-19.83c-3.6,0-6.1,2.69-6.1,6.58s2.5,6.53,6.1,6.53,6.1-2.69,6.1-6.53S211.33,243,207.78,243Z" transform="translate(-23.45 -23)"/><path class="cls-2" d="M235.41,256.08l6.34-18.82h6.82v3.89l-7.68,20.74H230l-7.68-20.74v-3.89h6.86Z" transform="translate(-23.45 -23)"/></svg>