<svg id="Capa_1" data-name="Capa 1" xmlns="http://www.w3.org/2000/svg" viewBox="0 0 185.42 179.2"><defs><style>.cls-1{fill:#efefef;}.cls-2{fill:#54b99d;}.cls-3{fill:#ff3a00;}</style></defs><title>Placeholder</title><ellipse class="cls-1" cx="92.71" cy="175.45" rx="49.83" ry="3.75"/><path class="cls-2" d="M99.19,60.58h18.28a3.88,3.88,0,0,1,3.46,5.86L93.57,112.66a4.06,4.06,0,0,1-3.68,2.07,3.89,3.89,0,0,1-3.64-3.88V81.3H68a3.94,3.94,0,0,1-2.35-.7,3.89,3.89,0,0,1-1.1-5.16L89.67,32.93a1.61,1.61,0,0,0-1.51-2.43,49.79,49.79,0,0,0-38.47,74.73h0L89,173.29a4.32,4.32,0,0,0,7.48,0l39.3-68.06h0A49.83,49.83,0,0,0,101.13,31a1.66,1.66,0,0,0-2,1.63"/><path class="cls-3" d="M25,75.69H5.43a5.43,5.43,0,1,0,0,10.86H25a5.43,5.43,0,1,0,0-10.86Z"/><path class="cls-3" d="M180,75.69H160.44a5.43,5.43,0,1,0,0,10.86H180a5.43,5.43,0,0,0,0-10.86Z"/><path class="cls-3" d="M139.06.73a5.43,5.43,0,0,0-7.42,2l-9.77,17a5.43,5.43,0,0,0,9.41,5.43l9.77-17A5.43,5.43,0,0,0,139.06.73Z"/><path class="cls-3" d="M63.55,19.67l-9.77-17a5.43,5.43,0,0,0-9.41,5.43l9.77,17a5.43,5.43,0,0,0,9.41-5.43Z"/></svg>