<svg id="Capa_1" data-name="Capa 1" xmlns="http://www.w3.org/2000/svg" viewBox="0 0 225.11 47.28"><defs><style>.cls-1{fill:#54b99d;}.cls-2{fill:#ff3a00;}</style></defs><title>typo</title><path class="cls-1" d="M19,.82C30.29.82,38,8.3,38,19.15S30.29,37.44,19,37.44,0,30,0,19.15,7.73.82,19,.82ZM19,30.1c6.14,0,10.42-4.51,10.42-10.95s-4.27-11-10.42-11-10.42,4.51-10.42,11S12.86,30.1,19,30.1Z"/><path class="cls-1" d="M50.3,47.28a7.63,7.63,0,0,1-7.63-7.63V23c0-7.15,5.57-12.34,13.3-12.34,8,0,13.83,5.62,13.83,13.3S64.51,37.2,57.31,37.2a10.08,10.08,0,0,1-7-2.69V47.28Zm5.76-29.91c-3.5,0-6,2.74-6,6.58s2.54,6.53,6,6.53,6.1-2.74,6.1-6.53S59.62,17.38,56.06,17.38Z"/><path class="cls-1" d="M71.57,11.62H75a5.28,5.28,0,0,1,5.28-5.28h2.35v5.28h5.47v5.76H82.61v9.74a3,3,0,0,0,3.07,3.36,9.86,9.86,0,0,0,2.59-.34v6.29a18.32,18.32,0,0,1-5.18.77C78.24,37.2,75,33.55,75,28V17.38H71.57Z"/><path class="cls-1" d="M96.58,0A4.17,4.17,0,0,1,101,4.27a4.4,4.4,0,0,1-8.79,0A4.16,4.16,0,0,1,96.58,0Zm3.84,11.62h0V36.24H92.78v-17A7.63,7.63,0,0,1,100.42,11.62Z"/><path class="cls-1" d="M114.29,14.59a8.27,8.27,0,0,1,7.2-3.94A8.62,8.62,0,0,1,129.36,15a9.48,9.48,0,0,1,8.21-4.32c5.57,0,9.41,4.08,9.41,9.94v15.6h-7.63v-14c0-2.74-1.73-4.8-4.32-4.9s-4.42,2-4.42,4.9v14H123v-14c0-2.93-1.63-4.9-4.13-4.9s-4.27,2-4.27,4.9v14h-7.63V19a7.34,7.34,0,0,1,7.34-7.34h0Z"/><path class="cls-2" d="M163.71,37.2C155.55,37.2,150,31.78,150,24s5.57-13.3,13.73-13.3,13.73,5.42,13.73,13.3S171.83,37.2,163.71,37.2Zm0-19.83c-3.6,0-6.1,2.69-6.1,6.58s2.5,6.53,6.1,6.53,6.1-2.69,6.1-6.53S167.27,17.38,163.71,17.38Z"/><path class="cls-2" d="M184.33,37.2c-8.16,0-13.73-5.42-13.73-13.25s5.57-13.3,13.73-13.3,13.73,5.42,13.73,13.3S192.44,37.2,184.33,37.2Zm0-19.83c-3.6,0-6.1,2.69-6.1,6.58s2.5,6.53,6.1,6.53,6.1-2.69,6.1-6.53S187.88,17.38,184.33,17.38Z"/><path class="cls-1" d="M212,30.43l6.34-18.82h6.82v3.89l-7.68,20.74h-10.9l-7.68-20.74V11.62h6.86Z"/></svg>